<?xml version="1.0" encoding="UTF-8"?>
<svg width="24px" height="24px" viewBox="0 0 24 24" version="1.1" xmlns="http://www.w3.org/2000/svg" xmlns:xlink="http://www.w3.org/1999/xlink">
    <title>农业生产资料</title>
    <g id="页面-1" stroke="none" stroke-width="1" fill="none" fill-rule="evenodd">
        <g id="1、经营基本情况" transform="translate(-594, -550)" fill-rule="nonzero">
            <g id="编组-5备份-8" transform="translate(577, 538)">
                <g id="编组-4" transform="translate(17, 12)">
                    <g id="zhongzhi1" transform="translate(1, 1)">
                        <path d="M11.5087087,12.8603631 L11.5087087,6.74286399 L11.6606607,5.99731458 C11.6606607,5.99731458 12.4732733,3.40120505 15.0564565,2.24959748 C17.6396397,1.09798992 22,1.39088434 22,1.39088434 C22,1.39088434 21.6498498,3.70741285 20.4672673,5.72439024 C19.2912913,7.74136765 19.0072072,8.73987131 16.5165165,9.43216719 C15.0036036,9.85153873 13.233033,9.95138911 12.0834835,9.96470247 L12.0834835,12.8603631 L11.5087087,12.8603631 Z" id="路径" fill="#AFC0FF"></path>
                        <path d="M11.5087087,21.9933433 L11.5087087,12.8603631 L12.0834835,12.8603631 L18.3069069,12.8603631 L18.3069069,18.5185505 C18.3069069,20.4423343 16.7609609,22 14.8516517,22 L11.5087087,21.9933433 Z" id="路径" fill="#6385FF"></path>
                        <path d="M8.11291291,21.9933433 C6.20360359,21.9933433 4.65765766,20.4356776 4.65765766,18.5118939 L4.65765766,12.8537064 L10.8810811,12.8537064 L11.5087087,12.8537064 L11.5087087,22 L8.11291291,21.9933433 Z" id="路径" fill="#7E9AFF"></path>
                        <path d="M10.8810811,12.8537064 L10.8810811,9.93807571 L10.8678679,9.93807571 L10.8810811,9.88482218 L10.8810811,9.47210734 C9.64564565,9.47210734 7.63063063,9.37891367 5.91951953,8.8996319 C3.22402403,8.14076911 2.92012013,7.04241507 1.65165165,4.81908025 C0.383183174,2.59574543 0,0.0395760452 0,0.0395760452 C0,0.0395760452 4.72372373,-0.293258502 7.51831833,0.971512799 C10.3129129,2.2362841 11.184985,5.09866129 11.184985,5.09866127 L11.5087087,6.74286399 L11.5087087,12.8537064 L10.8810811,12.8537064 Z" id="路径" fill="#D0DAFF"></path>
                    </g>
                </g>
            </g>
        </g>
    </g>
</svg>