<?xml version="1.0" encoding="UTF-8"?>
<svg width="20px" height="20px" viewBox="0 0 20 20" version="1.1" xmlns="http://www.w3.org/2000/svg" xmlns:xlink="http://www.w3.org/1999/xlink">
    <title>矩形</title>
    <g id="页面-1" stroke="none" stroke-width="1" fill="none" fill-rule="evenodd">
        <g id="2、质量标准情况" transform="translate(-1472, -551)" fill="#000000">
            <g id="编组-2备份-2" transform="translate(358, 452)">
                <g id="编组-9" transform="translate(50, 84)">
                    <g id="删除" transform="translate(1064, 15)">
                        <rect id="矩形" fill-rule="nonzero" opacity="0" x="0" y="0" width="20" height="20"></rect>
                        <path d="M13.8568359,4.09091797 L18.1818359,4.09091797 C18.5563789,4.09375296 18.8585111,4.39818064 18.8585111,4.77273438 C18.8585111,5.14728811 18.5563789,5.45171579 18.1818359,5.45455078 L16.590918,5.45455078 L16.590918,17.3136328 C16.590918,18.4145508 15.7254492,19.3181836 14.6427344,19.3181836 L5.35726563,19.3181836 C4.27455078,19.3181836 3.40908203,18.4145508 3.40908203,17.3136328 L3.40908203,5.45455078 L1.81818359,5.45455078 C1.44364059,5.45171579 1.14150845,5.14728811 1.14150845,4.77273438 C1.14150845,4.39818064 1.44364059,4.09375296 1.81818359,4.09091797 L6.59773438,4.09091797 C6.71543526,2.17270029 8.30545007,0.677257625 10.2272754,0.677257625 C12.1491007,0.677257625 13.7391155,2.17270029 13.8568164,4.09091797 L13.8568359,4.09091797 Z M12.4886328,4.09091797 C12.3719864,2.9295159 11.3945205,2.04530504 10.2272754,2.04530504 C9.06003027,2.04530504 8.08256442,2.9295159 7.96591797,4.09091797 L12.4886328,4.09091797 L12.4886328,4.09091797 Z M15.2272656,5.45455078 L4.77273438,5.45455078 L4.77273438,17.3136328 C4.77273438,17.674082 5.04089844,17.9545508 5.35726563,17.9545508 L14.6427344,17.9545508 C14.9586328,17.9545508 15.2272656,17.674082 15.2272656,17.3136328 L15.2272656,5.45455078 L15.2272656,5.45455078 Z M7.04544922,8.32955078 C7.04828421,7.95500778 7.35271189,7.65287564 7.72726562,7.65287564 C8.10181936,7.65287564 8.40624704,7.95500778 8.40908203,8.32955078 L8.40908203,14.9486328 C8.40624704,15.3231758 8.10181936,15.625308 7.72726562,15.625308 C7.35271189,15.625308 7.04828421,15.3231758 7.04544922,14.9486328 L7.04544922,8.32955078 Z M11.590918,8.32955078 C11.593753,7.95500778 11.8981806,7.65287564 12.2727344,7.65287564 C12.6472881,7.65287564 12.9517158,7.95500778 12.9545508,8.32955078 L12.9545508,14.9486328 C12.9517158,15.3231758 12.6472881,15.625308 12.2727344,15.625308 C11.8981806,15.625308 11.593753,15.3231758 11.590918,14.9486328 L11.590918,8.32955078 L11.590918,8.32955078 Z" id="形状" fill-opacity="0.5"></path>
                    </g>
                </g>
            </g>
        </g>
    </g>
</svg>