<?xml version="1.0" encoding="UTF-8"?>
<svg width="24px" height="24px" viewBox="0 0 24 24" version="1.1" xmlns="http://www.w3.org/2000/svg" xmlns:xlink="http://www.w3.org/1999/xlink">
    <title>建筑和装饰装修材料</title>
    <g id="页面-1" stroke="none" stroke-width="1" fill="none" fill-rule="evenodd">
        <g id="1、经营基本情况" transform="translate(-594, -1155)">
            <g id="编组-7" transform="translate(381, 994)">
                <g id="编组-5备份-5" transform="translate(196, 148)">
                    <g id="编组-4" transform="translate(17, 13)">
                        <g id="装修-(1)" transform="translate(2.6667, 0.6667)">
                            <path d="M11.2420827,3.01459034 C11.2420827,3.77328454 11.8342299,4.38832771 12.5646806,4.38832771 C13.2951313,4.38832771 13.8872786,3.77328454 13.8872786,3.01459034 L13.8872786,0 L15.2098765,0 C15.9403272,0 16.5324745,0.615043171 16.5324745,1.37373737 L16.5324745,7.55555554 C16.5324745,7.91989335 16.3931298,8.26930883 16.1450945,8.52693457 C15.8970593,8.7845603 15.5606513,8.92929293 15.2098765,8.92929293 L2.64519592,8.92929293 C2.29442113,8.92929293 1.95801316,8.7845603 1.70997792,8.52693457 C1.46194269,8.26930883 1.32259796,7.91989335 1.32259796,7.55555554 L1.32259796,1.37373737 C1.32259796,0.615043171 1.91474523,0 2.64519592,0 L11.2420827,0 L11.2420827,3.01459034 Z" id="路径" fill="#7CFDE0" fill-rule="nonzero"></path>
                            <path d="M2.88180354,0 L9.33333333,0 L9.33333333,0 L9.33333333,8.81481481 L2.88180354,8.81481481 C1.96257405,8.81481481 1.2173913,8.06963207 1.2173913,7.15040258 L1.2173913,1.66441224 C1.2173913,0.745182742 1.96257405,6.12948929e-16 2.88180354,0 Z" id="矩形" fill="#D0DAFF" fill-rule="nonzero"></path>
                            <path d="M10.9977456,0 L17.4492754,0 L17.4492754,0 L17.4492754,8.81481481 L10.9977456,8.81481481 C10.0785161,8.81481481 9.33333333,8.06963207 9.33333333,7.15040258 L9.33333333,1.66441224 C9.33333333,0.745182742 10.0785161,3.90904324e-16 10.9977456,0 Z" id="矩形" fill="#AFC0FF" fill-rule="nonzero" transform="translate(13.3913, 4.4074) scale(-1, 1) translate(-13.3913, -4.4074)"></path>
                            <path d="M9.33333333,22.6666667 L8.59688673,22.6666667 C7.86643605,22.6666667 7.27428877,22.0516235 7.27428877,21.2929293 L7.27428877,14.8617778 L1.98389694,14.8617778 C0.888220914,14.8617778 0,13.939213 0,12.8011717 L0,6.86868685 L9.33333333,6.86868685 L9.33333333,22.6666667 Z" id="路径" fill="#7E9AFF" fill-rule="nonzero"></path>
                            <path d="M18.6666667,22.6666667 L17.9302201,22.6666667 C17.1997694,22.6666667 16.6076221,22.0516235 16.6076221,21.2929293 L16.6076221,14.8617778 L11.3172303,14.8617778 C10.2215542,14.8617778 9.33333333,13.939213 9.33333333,12.8011717 L9.33333333,6.86868685 L18.6666667,6.86868685 L18.6666667,22.6666667 Z" id="路径" fill="#6385FF" fill-rule="nonzero" transform="translate(14, 14.7677) scale(-1, 1) translate(-14, -14.7677)"></path>
                            <path d="M12.173913,0 L14.6086957,0 L14.6086957,2.98013956 C14.6086957,3.65248621 14.063651,4.19753086 13.3913043,4.19753086 C12.7189577,4.19753086 12.173913,3.65248621 12.173913,2.98013956 L12.173913,0 L12.173913,0 Z" id="矩形" fill="#FFFFFF"></path>
                        </g>
                    </g>
                </g>
            </g>
        </g>
    </g>
</svg>