<?xml version="1.0" encoding="UTF-8"?>
<svg width="24px" height="24px" viewBox="0 0 24 24" version="1.1" xmlns="http://www.w3.org/2000/svg" xmlns:xlink="http://www.w3.org/1999/xlink">
    <title>机械及安防</title>
    <g id="页面-1" stroke="none" stroke-width="1" fill="none" fill-rule="evenodd">
        <g id="1、经营基本情况" transform="translate(-594, -1006)">
            <g id="编组-7" transform="translate(381, 994)">
                <g id="编组-5备份-11" transform="translate(196, 0)">
                    <g id="编组-4" transform="translate(17, 12)">
                        <g id="编组-22" transform="translate(1, 1)">
                            <path d="M11,0 L11.0004881,2.46741371 L10.9995543,20.550388 L11,23 L10.6077456,22.99347 C10.0560522,22.9739269 9.50555585,22.9156687 8.96030463,22.8186955 L8.89038706,22.8055338 C8.54970725,22.7448889 8.28256906,22.4821894 8.21951129,22.1458053 L7.81506571,19.9931691 C6.85106855,19.6406137 5.96363744,19.1315644 5.18421269,18.4971538 L3.10886956,19.2272056 C2.78259833,19.3408073 2.41923157,19.2439977 2.19494699,18.9837147 L2.14833527,18.9294228 C1.24273621,17.8781347 0.548554585,16.6820682 0.077443312,15.3889344 L0.054137454,15.323126 C-0.0633530114,15.0009114 0.0334625241,14.6404666 0.297184259,14.4182614 L1.97110149,12.9998459 C1.90385436,12.5985024 1.86330212,12.1882285 1.85131213,11.7708734 L1.8475543,11.5089466 C1.8475543,10.9951803 1.89082902,10.4914225 1.97396596,10.0010522 L0.290525443,8.58106202 C0.0282459594,8.35793138 -0.0677380328,7.99811797 0.0491433415,7.6761974 L0.0724491996,7.61038907 C0.542631789,6.31767954 1.24407995,5.11901002 2.14334116,4.0715458 L2.18995287,4.01725392 C2.41302299,3.7562439 2.77612109,3.65867452 3.10221074,3.77211787 L5.19908441,4.50866035 C5.97194622,3.88227488 6.85043471,3.37890961 7.80405832,3.0287577 L8.21285247,0.853518175 C8.27528826,0.516495651 8.54255793,0.253011471 8.88372824,0.192144399 L8.95531052,0.18062794 C9.54106801,0.0770587537 10.1328108,0.0179235413 10.7254032,0.00322230291 L11,0 Z" id="形状结合" fill="#7E9AFF" fill-rule="nonzero"></path>
                            <path d="M11,0 L11.2745968,0.00322230291 C11.8671892,0.0179235413 12.458932,0.0770587537 13.0446895,0.18062794 L13.1162718,0.192144399 C13.4574421,0.253011471 13.7247117,0.516495651 13.7871475,0.853518175 L14.1964345,3.02889779 C15.1499109,3.37904386 16.0282681,3.88235841 16.8010269,4.50866035 L18.8977893,3.77211787 C19.2238789,3.65867452 19.586977,3.7562439 19.8100471,4.01725392 L19.8566588,4.0715458 C20.7559201,5.11901002 21.4573682,6.31767954 21.9275508,7.61038907 L21.9508567,7.6761974 C22.067738,7.99811797 21.971754,8.35793138 21.7094746,8.58106202 L20.0261453,10.0010522 C20.1092823,10.4914225 20.152557,10.9951803 20.152557,11.5089466 L20.1487992,11.7708734 C20.1368092,12.1882285 20.0962569,12.5985024 20.0290098,12.9998459 L21.7028157,14.4182614 C21.9665375,14.6404666 22.063353,15.0009114 21.9458625,15.323126 L21.9225567,15.3889344 C21.4514454,16.6820682 20.7572638,17.8781347 19.8516647,18.9294228 L19.805053,18.9837147 C19.5807684,19.2439977 19.2174017,19.3408073 18.8911304,19.2272056 L16.8158986,18.4971538 C16.0365893,19.1314704 15.1493056,19.6404629 14.185474,19.9930124 L13.7804887,22.1458053 C13.7174309,22.4821894 13.4502927,22.7448889 13.1096129,22.8055338 L13.0396954,22.8186955 C12.4944441,22.9156687 11.9439478,22.9739269 11.3922544,22.99347 L11,23 L10.9995368,20.5504816 L10.9996232,2.46741371 L11,0 Z" id="形状结合" fill="#6385FF" fill-rule="nonzero"></path>
                            <path d="M11.0000556,6.80733609 L11.0000556,15.7425234 C8.50828958,15.7425234 6.48831407,13.7423136 6.48831407,11.2749298 C6.48831407,8.80754591 8.50828958,6.80733609 11.0000556,6.80733609 Z" id="形状结合" fill="#FFFFFF" fill-rule="nonzero"></path>
                            <path d="M15.5117972,6.80733609 L15.5117972,15.7425234 C13.0200312,15.7425234 11.0000556,13.7423136 11.0000556,11.2749298 C11.0000556,8.80754591 13.0200312,6.80733609 15.5117972,6.80733609 Z" id="形状结合" fill="#FFFFFF" fill-rule="nonzero" transform="translate(13.2559, 11.2749) scale(-1, 1) translate(-13.2559, -11.2749)"></path>
                            <path d="M11.0000556,8.29653398 L11.0000556,14.2533255 C9.33887827,14.2533255 7.99222793,12.9198523 7.99222793,11.2749298 C7.99222793,9.63000719 9.33887827,8.29653398 11.0000556,8.29653398 Z" id="形状结合" fill="#BBCAFF"></path>
                            <path d="M14.0078834,8.29653398 L14.0078834,14.2533255 C12.346706,14.2533255 11.0000556,12.9198523 11.0000556,11.2749298 C11.0000556,9.63000719 12.346706,8.29653398 14.0078834,8.29653398 Z" id="形状结合" fill="#A5B9FF" transform="translate(12.504, 11.2749) scale(-1, 1) translate(-12.504, -11.2749)"></path>
                        </g>
                    </g>
                </g>
            </g>
        </g>
    </g>
</svg>