<?xml version="1.0" encoding="UTF-8"?>
<svg width="24px" height="24px" viewBox="0 0 24 24" version="1.1" xmlns="http://www.w3.org/2000/svg" xmlns:xlink="http://www.w3.org/1999/xlink">
    <title>电子电器</title>
    <g id="页面-1" stroke="none" stroke-width="1" fill="none" fill-rule="evenodd">
        <g id="1、经营基本情况" transform="translate(-594, -476)">
            <g id="编组-5" transform="translate(577, 464)">
                <g id="06洗衣机" transform="translate(17, 12)">
                    <path d="M12.5,1.16466197 L4.21249191,1.16466197 C4.15613124,1.16466197 4.10207931,1.1875695 4.06222863,1.22834447 C4.02237796,1.26911943 4,1.32442122 4,1.38208235 L4,23.7825796 C4,23.8402407 4.02237796,23.8955425 4.06222863,23.9363175 C4.10207931,23.9770925 4.15613124,24 4.21249191,24 L12.5,24 L12.5,1.16466197 Z" id="路径" fill="#7E9AFF" fill-rule="nonzero"></path>
                    <polygon id="矩形" fill="#D0DAFF" fill-rule="nonzero" points="7.09090909 -2.64813472e-13 12.5 0 12.5 1.16466197 4 1.16466197"></polygon>
                    <polygon id="矩形" fill="#AFC0FF" fill-rule="nonzero" transform="translate(16.75, 0.5823) scale(-1, 1) translate(-16.75, -0.5823)" points="15.5909091 -2.64813472e-13 21 0 21 1.16466197 12.5 1.16466197"></polygon>
                    <path d="M21,1.16466197 L12.7124919,1.16466197 C12.6561312,1.16466197 12.6020793,1.1875695 12.5622286,1.22834447 C12.522378,1.26911943 12.5,1.32442122 12.5,1.38208235 L12.5,23.7825796 C12.5,23.8402407 12.522378,23.8955425 12.5622286,23.9363175 C12.6020793,23.9770925 12.6561312,24 12.7124919,24 L21,24 L21,1.16466197 Z" id="路径" fill="#6385FF" fill-rule="nonzero" transform="translate(16.75, 12.5823) scale(-1, 1) translate(-16.75, -12.5823)"></path>
                    <polygon id="路径" fill="#FFFFFF" fill-rule="nonzero" opacity="0.4" points="20.2832093 5.33156112 4.82866389 5.33156112 4.82866389 2.07051016 20.2832093 2.07051016"></polygon>
                    <path d="M12.5,19.4110328 C15.4873551,19.4110328 17.9090909,16.9776656 17.9090909,13.9759521 C17.9090909,10.9742385 15.487372,8.54085442 12.5000169,8.54085442 C9.51266178,8.54085442 7.09090909,10.9742046 7.09090909,13.9759181 C7.09090909,15.4173978 7.66078413,16.7998405 8.67518617,17.819123 C9.68958822,18.8384054 11.0654155,19.4110328 12.5,19.4110328 L12.5,19.4110328 Z" id="路径" fill="#FFFFFF" fill-rule="nonzero"></path>
                    <path d="M12.4986803,9.70551638 C14.2177407,9.70551638 15.694351,10.7330713 16.3636364,12.2081385 C15.9919416,12.2527606 15.7115645,12.5686779 15.7097478,12.9449374 L15.7097478,15.0073729 C15.7117417,15.3834765 15.9920303,15.6992824 16.3636364,15.7439936 C15.6937307,17.2190608 14.2171425,18.2463708 12.4986803,18.2463708 C10.152205,18.2463708 8.25,16.3345014 8.25,13.9760772 C8.25,11.617653 10.152205,9.70551638 12.4986803,9.70551638 Z M13.3856921,10.3581033 C12.0257432,10.0524731 10.6103213,10.5403324 9.72306576,11.6203472 C8.60222162,12.9856405 8.61511508,14.9123839 9.64430937,16.2580382 C9.6942438,14.7418225 10.2425478,13.2848579 11.203553,12.1149977 C11.802744,11.3844558 12.5456683,10.7863105 13.3856921,10.3581033 Z" id="形状结合" fill="#355DEE"></path>
                    <path d="M6.68421053,4.56158845 C7.17835949,4.56158845 7.57894737,4.15602822 7.57894737,3.6557438 C7.57894737,3.15545938 7.17836229,2.74989631 6.68421332,2.74989631 C6.19006436,2.74989631 5.78947368,3.15545372 5.78947368,3.65573814 C5.78947368,3.89598419 5.88373873,4.12639077 6.05153456,4.29627078 C6.21933038,4.46615079 6.44691084,4.56158845 6.68421053,4.56158845 L6.68421053,4.56158845 Z" id="路径" fill="#FFFFFF" fill-rule="nonzero"></path>
                    <path d="M8.92105263,4.56158845 C9.4152016,4.56158845 9.81578947,4.15602822 9.81578947,3.6557438 C9.81578947,3.15545938 9.41520439,2.74989631 8.92105543,2.74989631 C8.42690646,2.74989631 8.02631579,3.15545372 8.02631579,3.65573814 C8.02631579,3.89598419 8.12058083,4.12639077 8.28837666,4.29627078 C8.45617249,4.46615079 8.68375294,4.56158845 8.92105263,4.56158845 L8.92105263,4.56158845 Z" id="路径" fill="#FFFFFF" fill-rule="nonzero"></path>
                    <path d="M11.1578947,4.56158845 C11.6520437,4.56158845 12.0526316,4.15602822 12.0526316,3.6557438 C12.0526316,3.15545938 11.6520465,2.74989631 11.1578975,2.74989631 C10.6637486,2.74989631 10.2631579,3.15545372 10.2631579,3.65573814 C10.2631579,3.89598419 10.3574229,4.12639077 10.5252188,4.29627078 C10.6930146,4.46615079 10.920595,4.56158845 11.1578947,4.56158845 L11.1578947,4.56158845 Z" id="路径" fill="#FFFFFF" fill-rule="nonzero"></path>
                    <path d="M14.7368264,2.74989631 L18.3158052,2.74989631 C18.6140403,2.74989631 18.7631579,2.87067324 18.7631579,3.11222709 L18.7631579,4.19926191 C18.7631579,4.44081577 18.6140403,4.5615927 18.3158052,4.5615927 L14.7368264,4.5615927 C14.4385912,4.5615927 14.2894737,4.44081577 14.2894737,4.19926191 L14.2894737,3.11222709 C14.2894737,2.87067324 14.4385912,2.74989631 14.7368264,2.74989631 Z" id="路径" fill="#FFFFFF" fill-rule="nonzero"></path>
                </g>
            </g>
        </g>
    </g>
</svg>