<?xml version="1.0" encoding="UTF-8"?>
<svg width="24px" height="24px" viewBox="0 0 24 24" version="1.1" xmlns="http://www.w3.org/2000/svg" xmlns:xlink="http://www.w3.org/1999/xlink">
    <title>电工及材料</title>
    <g id="页面-1" stroke="none" stroke-width="1" fill="none" fill-rule="evenodd">
        <g id="1、经营基本情况" transform="translate(-594, -1081)" fill-rule="nonzero">
            <g id="编组-7" transform="translate(381, 994)">
                <g id="编组-5备份-5" transform="translate(196, 74)">
                    <g id="编组-4" transform="translate(17, 13)">
                        <g id="水电工" transform="translate(2, 0)">
                            <path d="M5.5882353,0 C6.07554537,0 6.47058824,0.402943725 6.47058824,0.9 L6.47058824,3 L4.70588236,3 L4.70588236,0.9 C4.70588236,0.402943725 5.10092523,0 5.5882353,0 Z" id="路径" fill="#D0DAFF"></path>
                            <path d="M10,3 L10,24 C9.51268993,24 9.11764706,23.5970563 9.11764706,23.1 L9.11764706,18 L6.47058824,18 C2.57235295,18 0,14.7762 0,10.8 L0,4.8 C0,3.80588746 0.790085735,3 1.76470588,3 L10,3 Z" id="路径" fill="#7E9AFF"></path>
                            <path d="M14.4117647,0 C14.8990748,0 15.2941176,0.402943725 15.2941176,0.9 L15.2941176,3 L13.5294118,3 L13.5294118,0.9 C13.5294118,0.402943725 13.9244546,0 14.4117647,0 Z" id="路径" fill="#AFC0FF" transform="translate(14.4118, 1.5) scale(-1, 1) translate(-14.4118, -1.5)"></path>
                            <path d="M20,3 L20,24 C19.5126899,24 19.1176471,23.5970563 19.1176471,23.1 L19.1176471,18 L16.4705882,18 C12.5723529,18 10,14.7762 10,10.8 L10,4.8 C10,3.80588746 10.7900857,3 11.7647059,3 L20,3 Z" id="路径" fill="#6385FF" transform="translate(15, 13.5) scale(-1, 1) translate(-15, -13.5)"></path>
                            <path d="M9.84647059,11.7 L8.23529412,11.7 C7.48176471,11.7 7.07470588,10.7988 7.56470588,10.215 L10.5858824,6.615 C10.9026339,6.23723723 11.4596443,6.19291342 11.83,6.516 C12.2003557,6.83908658 12.2438104,7.40723723 11.9270588,7.785 L10.1511765,9.9 L11.7647059,9.9 C12.5188235,9.9 12.9252941,10.8018 12.4347059,11.3856 L9.40941176,14.9856 C9.09135934,15.3590482 8.53743612,15.4006693 8.16916641,15.0787906 C7.80089671,14.7569119 7.75634389,14.1922048 8.06941177,13.8144 L9.84588236,11.7 L9.84647059,11.7 Z" id="路径" fill="#FFFFFF"></path>
                        </g>
                    </g>
                </g>
            </g>
        </g>
    </g>
</svg>