<?xml version="1.0" encoding="UTF-8"?>
<svg width="24px" height="24px" viewBox="0 0 24 24" version="1.1" xmlns="http://www.w3.org/2000/svg" xmlns:xlink="http://www.w3.org/1999/xlink">
    <title>轻工产品</title>
    <g id="页面-1" stroke="none" stroke-width="1" fill="none" fill-rule="evenodd">
        <g id="1、经营基本情况" transform="translate(-594, -698)" fill-rule="nonzero">
            <g id="编组-5备份-10" transform="translate(577, 686)">
                <g id="编组-4" transform="translate(17, 12)">
                    <g id="纸品区" transform="translate(1, 2)">
                        <path d="M0,2.63273424 L0,18.4415144 C0,19.8553329 3.89616654,21 8.70353331,21 C13.5109001,21 17.4070666,19.8553329 17.4070666,18.4415144 L17.4070666,2.63273424 L0,2.63273424 Z" id="路径" fill="#7E9AFF"></path>
                        <path d="M19.673478,14.3237584 L19.6658996,14.3267315 C18.7696185,14.6783459 17.772383,14.671462 16.8810415,14.3075075 L16.8733464,14.3043654 C15.9791241,13.9392346 14.9766679,13.9432357 14.0853887,14.3154929 L14.0742555,14.3201429 C13.1838927,14.6920173 12.1827913,14.6977334 11.28824,14.3360506 L11.2761585,14.3311659 C10.3862402,13.9713563 9.39337247,13.9603356 8.4956868,14.3003032 L7.7180535,14.594805 C7.48209974,14.6841644 7.21838134,14.5653261 7.12902198,14.3293724 C7.10944339,14.277675 7.09941021,14.2228535 7.09941021,14.1675729 L7.09941021,1.85472936 L7.09941021,1.85472936 L23.8547294,1.8666009 L23.8547294,14.1692232 C23.8547294,14.4215311 23.6501934,14.6260671 23.3978855,14.6260671 C23.3429638,14.6260671 23.288492,14.6161637 23.2370849,14.5968322 L22.4584528,14.3040308 C21.5596219,13.9660292 20.5674304,13.9730575 19.673478,14.3237584 Z" id="路径" fill="#AFC0FF" transform="translate(15.4771, 8.3777) rotate(-90) translate(-15.4771, -8.3777)"></path>
                        <path d="M8.97060925,21 C13.6522932,20.959782 17.4070666,19.8305834 17.4070666,18.4446081 L17.4070666,2.63582793 L8.97060925,2.63582793 L8.97060925,21 Z" id="路径" fill="#6385FF"></path>
                        <path d="M17.4070666,2.56776665 C17.4070666,4.28476724 13.5109001,5.13553329 8.70353331,5.13553329 C3.89616654,5.13553329 0,4.29714202 0,2.56776665 C0,0.856953447 3.89616654,2.27373675e-13 8.70353331,2.27373675e-13 C13.5109001,2.27373675e-13 17.4070666,0.869328226 17.4070666,2.56776665 Z" id="路径" fill="#6A85E7"></path>
                        <path d="M8.965,2.27373675e-13 L8.965,5.1324396 C13.646684,5.10150265 17.4014574,4.25073659 17.4014574,2.56776665 C17.4014574,0.900265174 13.646684,0.0340306423 8.965,2.27373675e-13 Z" id="路径" fill="#5976DE"></path>
                        <path d="M12.3860391,2.63892163 C12.3860391,3.3597525 10.7364525,3.7155274 8.70353331,3.7155274 C6.66747209,3.7155274 5.02102752,3.36593989 5.02102752,2.63892163 C5.02102752,1.92118444 6.67061416,1.56231585 8.70353331,1.56231585 C10.7395945,1.56540955 12.3860391,1.93046553 12.3860391,2.63892163 Z" id="路径" fill="#FFFFFF"></path>
                        <path d="M8.97060925,1.56850324 L8.97060925,3.69077784 C10.8621353,3.6598409 12.3546184,3.31025339 12.3546184,2.62964054 C12.3546184,1.95521509 10.8621353,1.59944019 8.97060925,1.56850324 L8.97060925,1.56850324 Z" id="路径" fill="#FFFFFF"></path>
                    </g>
                </g>
            </g>
        </g>
    </g>
</svg>