<?xml version="1.0" encoding="UTF-8"?>
<svg width="24px" height="24px" viewBox="0 0 24 24" version="1.1" xmlns="http://www.w3.org/2000/svg" xmlns:xlink="http://www.w3.org/1999/xlink">
    <title>食品相关产品</title>
    <g id="页面-1" stroke="none" stroke-width="1" fill="none" fill-rule="evenodd">
        <g id="1、经营基本情况" transform="translate(-594, -624)" fill-rule="nonzero">
            <g id="编组-5备份-9" transform="translate(577, 612)">
                <g id="编组-4" transform="translate(17, 12)">
                    <g id="蛋糕" transform="translate(1, 1)">
                        <path d="M11,13.0470367 L11,16.5390367 L10.9055427,16.5301864 C9.967291,16.3535459 9.90522766,14.8521015 8.85015085,14.8521015 C7.72913175,14.8521015 7.72913175,16.5470915 6.60811264,16.5470915 C5.48709353,16.5470915 5.48709353,14.8521015 4.36607442,14.8521015 C3.24505531,14.8521015 3.24505531,16.5470915 2.12403621,16.5470915 C1.04480948,16.5470915 1.00547547,14.9726101 0,14.8599607 L0,14.7420718 C0,13.8068199 0.712928819,13.0470915 1.59056878,13.0470915 L11,13.0470367 Z" id="形状结合" fill="#EFF3FF"></path>
                        <path d="M22,13.0470367 L22,16.5390367 L21.9055427,16.5301864 C20.967291,16.3535459 20.9052277,14.8521015 19.8501509,14.8521015 C18.7291317,14.8521015 18.7291317,16.5470915 17.6081126,16.5470915 C16.4870935,16.5470915 16.4870935,14.8521015 15.3660744,14.8521015 C14.2450553,14.8521015 14.2450553,16.5470915 13.1240362,16.5470915 C12.0448095,16.5470915 12.0054755,14.9726101 11,14.8599607 L11,14.7420718 C11,13.8068199 11.7129288,13.0470915 12.5905688,13.0470915 L22,13.0470367 Z" id="形状结合" fill="#D0DAFF" transform="translate(16.5, 14.7971) scale(-1, 1) translate(-16.5, -14.7971)"></path>
                        <path d="M8.85260923,14.8166367 C9.94118614,14.8166367 9.97268946,16.4149314 11.0000831,16.5074404 L11.0024584,22 L0.00245837524,22 L0.00245837524,14.8244959 C1.00793385,14.9397651 1.04726785,16.511617 2.12649458,16.511617 C3.24751369,16.511617 3.24751369,14.8166367 4.3685328,14.8166367 C5.48955191,14.8166367 5.48955191,16.511617 6.61057101,16.511617 C7.73159012,16.511617 7.73159012,14.8166367 8.85260923,14.8166367 Z" id="形状" fill="#7E9AFF"></path>
                        <g id="编组-26" transform="translate(3, 5.1022)">
                            <path d="M8,0 L8,2.185 L7.91681475,2.1912464 C7.54719915,2.24284637 7.32333253,2.5159592 7.11864341,2.81821845 L6.99589385,3.00338842 C6.75091653,3.37452139 6.4965471,3.73138001 6.00737513,3.73138001 C4.98826685,3.73138001 4.98826685,2.18251446 3.96915857,2.18251446 C3.52075092,2.18251446 3.26964264,2.48237483 3.04221028,2.81821845 L2.91946073,3.00338842 C2.67448341,3.37452139 2.42011398,3.73138001 1.930942,3.73138001 C1.4600067,3.73138001 1.20688166,3.3998931 0.969883848,3.04376254 L0.851795159,2.86506419 L0.749821995,2.71696579 C0.558884292,2.45150603 0.340314775,2.22802102 0,2.18969622 L0,1.54891558 C0,0.694286523 0.648117108,5.00329057e-05 1.44597162,5.00329057e-05 L8,0 Z" id="形状结合" fill="#E0E7FF"></path>
                            <path d="M3.96915857,2.13221715 C4.41501844,2.13221715 4.66581462,2.42111588 4.89222783,2.74612695 L5.08430586,3.02765581 C5.31071907,3.35266688 5.56151525,3.64156561 6.00737513,3.64156561 C6.453235,3.64156561 6.70403118,3.35266688 6.93044439,3.02765581 L7.12252242,2.74612695 C7.34066976,2.43298136 7.58145221,2.15335947 7.99753107,2.13336001 L8,7.99581431 L0,7.99581431 L0,2.13921567 C0.914068611,2.2418607 0.949826796,3.64156561 1.930942,3.64156561 C2.37680188,3.64156561 2.62759806,3.35266688 2.85401127,3.02765581 L3.0460893,2.74612695 C3.27250251,2.42111588 3.52329869,2.13221715 3.96915857,2.13221715 Z" id="形状结合" fill="#7E9AFF"></path>
                        </g>
                        <g id="编组-26" transform="translate(15, 9.1001) scale(-1, 1) translate(-15, -9.1001)translate(11, 5.1022)">
                            <path d="M8,0 L8,2.185 L7.91681475,2.1912464 C7.54719915,2.24284637 7.32333253,2.5159592 7.11864341,2.81821845 L6.99589385,3.00338842 C6.75091653,3.37452139 6.4965471,3.73138001 6.00737513,3.73138001 C4.98826685,3.73138001 4.98826685,2.18251446 3.96915857,2.18251446 C3.52075092,2.18251446 3.26964264,2.48237483 3.04221028,2.81821845 L2.91946073,3.00338842 C2.67448341,3.37452139 2.42011398,3.73138001 1.930942,3.73138001 C1.4600067,3.73138001 1.20688166,3.3998931 0.969883848,3.04376254 L0.851795159,2.86506419 L0.749821995,2.71696579 C0.558884292,2.45150603 0.340314775,2.22802102 0,2.18969622 L0,1.54891558 C0,0.694286523 0.648117108,5.00329057e-05 1.44597162,5.00329057e-05 L8,0 Z" id="形状结合" fill="#D0DAFF"></path>
                            <path d="M3.96915857,2.13221715 C4.41501844,2.13221715 4.66581462,2.42111588 4.89222783,2.74612695 L5.08430586,3.02765581 C5.31071907,3.35266688 5.56151525,3.64156561 6.00737513,3.64156561 C6.453235,3.64156561 6.70403118,3.35266688 6.93044439,3.02765581 L7.12252242,2.74612695 C7.34084945,2.43272342 7.5818489,2.15289884 7.99855963,2.13331111 L8,7.99581431 L0,7.99581431 L0,2.13921567 C0.914068611,2.2418607 0.949826796,3.64156561 1.930942,3.64156561 C2.37680188,3.64156561 2.62759806,3.35266688 2.85401127,3.02765581 L3.0460893,2.74612695 C3.27250251,2.42111588 3.52329869,2.13221715 3.96915857,2.13221715 Z" id="形状结合" fill="#6385FF"></path>
                        </g>
                        <path d="M19.8501509,14.8144282 C20.9387278,14.8144282 20.9702311,16.4127229 21.9976247,16.505232 L22,21.9977915 L11,21.9977915 L11,14.8222875 C12.0054755,14.9375566 12.0448095,16.5094085 13.1240362,16.5094085 C14.2450553,16.5094085 14.2450553,14.8144282 15.3660744,14.8144282 C16.4870935,14.8144282 16.4870935,16.5094085 17.6081126,16.5094085 C18.7291317,16.5094085 18.7291317,14.8144282 19.8501509,14.8144282 Z" id="形状" fill="#6385FF" transform="translate(16.5, 18.4061) scale(-1, 1) translate(-16.5, -18.4061)"></path>
                        <g id="蜡烛" transform="translate(9.8503, 0)" fill="#6385FF">
                            <path d="M1.26882012,0 C1.26882012,0 1.86604669,0.77160441 1.86604669,1.12532757 C1.86990606,1.44479683 1.65062693,1.70966492 1.36377541,1.758196 L1.36373456,2.24984724 L2.30686102,2.24983891 C2.43562034,2.24983891 2.5,2.31811706 2.5,2.45467335 L2.5,5.11994479 C2.5,5.25650108 2.43562034,5.32477923 2.30686102,5.32477923 L0.19313898,5.32477923 C0.0643796599,5.32477923 0,5.25650108 0,5.11994479 L0,2.45467335 C0,2.31812261 0.0643796599,2.24983891 0.19313898,2.24983891 L1.1793205,2.24984724 L1.17897781,1.75903571 C0.889626922,1.71280125 0.667742,1.44668942 0.667742,1.12532757 C0.667742,0.77160441 1.26882012,0 1.26882012,0 Z" id="形状结合"></path>
                        </g>
                    </g>
                </g>
            </g>
        </g>
    </g>
</svg>